<svg width="120" height="80" viewBox="0 0 120 80" version="1.1" xmlns="http://www.w3.org/2000/svg" xmlns:xlink="http://www.w3.org/1999/xlink">
<title>Frame 19</title>
<desc>Created using Figma</desc>
<g id="Canvas" transform="translate(-4646 -821)">
<clipPath id="clip-0" clip-rule="evenodd">
<path d="M 4646 821L 4766 821L 4766 901L 4646 901L 4646 821Z" fill="#FFFFFF"/>
</clipPath>
<g id="Frame 19" clip-path="url(#clip-0)">
<g id="Drag_gesture">
<g id="Group">
<g id="Group">
<g id="Vector">
<use xlink:href="#path0_fill" transform="translate(4717.47 835.503)" fill="#FFFFFF"/>
</g>
<g id="Vector">
<use xlink:href="#path1_fill" transform="translate(4716 834)"/>
</g>
</g>
</g>
<g id="Vector">
<use xlink:href="#path2_stroke" transform="translate(4732.45 842.516)"/>
</g>
<g id="Vector">
<use xlink:href="#path3_stroke" transform="translate(4723.01 854.839)"/>
</g>
<g id="Vector">
<use xlink:href="#path4_stroke" transform="translate(4743.36 842.917)"/>
</g>
<g id="Vector">
<use xlink:href="#path5_stroke" transform="translate(4752.5 848.527)"/>
</g>
</g>
<g id="Drag_hover">
<g id="Group">
<g id="Vector">
<use xlink:href="#path6_fill" transform="translate(4650.42 828.476)" fill="#FFFFFF"/>
</g>
<g id="Vector">
<use xlink:href="#path7_fill" transform="translate(4649 827)"/>
</g>
</g>
<g id="Vector">
<use xlink:href="#path8_stroke" transform="translate(4673.51 833.692)"/>
</g>
<g id="Vector">
<use xlink:href="#path9_stroke" transform="translate(4684.14 833.987)"/>
</g>
<g id="Vector">
<use xlink:href="#path10_stroke" transform="translate(4693.39 839.991)"/>
</g>
</g>
</g>
</g>
<defs>
<path id="path0_fill" d="M 23.9233 51.0946C 14.979 51.0946 8.78677 49.0909 4.85519 44.9833C 0.235593 40.1744 -0.157566 33.3618 0.0390127 27.9518C 0.137302 24.7458 2.39796 22.8423 4.26546 22.2412L 5.24835 21.9406L 5.24835 14.026C 5.24835 10.7199 7.90216 8.01484 11.1457 8.01484C 11.7355 8.01484 12.2269 8.11503 12.7183 8.21521L 14.5858 8.71614L 14.5858 5.91095C 14.5858 4.30798 15.2739 2.80519 16.355 1.70315C 17.4362 0.601112 18.9106 3.82177e-07 20.4832 3.82177e-07C 23.7268 3.82177e-07 26.3806 2.70501 26.3806 6.01113L 26.3806 8.3154L 28.2481 7.81447C 28.7395 7.71429 29.3292 7.6141 29.919 7.6141C 33.1625 7.6141 35.8163 10.3191 35.8163 13.6252L 35.8163 17.833L 37.6838 17.3321C 38.1753 17.2319 38.765 17.1317 39.2565 17.1317C 42.5 17.1317 45.1538 19.8367 45.1538 23.1429L 45.1538 31.4583C 45.1538 36.4675 43.8761 40.8757 41.3205 44.0816C 37.5855 48.6902 31.7865 51.0946 23.9233 51.0946Z"/>
<path id="path1_fill" d="M 21.9533 3.00557C 24.4106 3.00557 26.3763 5.00928 26.3763 7.51391L 26.3763 7.91466L 26.3763 11.8219L 30.1113 10.82C 30.5045 10.7199 30.8977 10.6197 31.3891 10.6197C 33.8463 10.6197 35.8121 12.6234 35.8121 15.128L 35.8121 17.4323L 35.8121 21.3395L 39.5471 20.3377C 39.9403 20.2375 40.3334 20.1373 40.7266 20.1373C 43.1838 20.1373 45.1496 22.141 45.1496 24.6456L 45.1496 32.961C 45.1496 37.6698 43.9701 41.6772 41.6112 44.6827C 38.3676 48.8905 32.9617 50.9944 25.4917 50.9944C 17.0389 50.9944 11.1415 49.1911 7.50478 45.384C 3.27834 40.9759 2.88518 34.564 3.08176 29.4545C 3.18005 27.0501 4.85098 25.5473 6.22703 25.1466L 8.19281 24.4453L 8.19281 22.2412L 8.19281 15.4286C 8.19281 12.9239 10.1586 10.9202 12.6158 10.9202C 13.009 10.9202 13.4021 11.0204 13.8936 11.1206L 17.6286 12.1224L 17.6286 8.21521L 17.6286 7.41373C 17.6286 6.2115 18.12 5.10946 18.9063 4.30798C 19.6927 3.50649 20.7739 3.00557 21.9533 3.00557ZM 21.9533 3.82177e-07C 19.9875 3.82177e-07 18.2183 0.801484 16.744 2.20408C 15.3679 3.60668 14.5816 5.41002 14.5816 7.41373L 14.5816 8.21521C 13.8936 8.01484 13.3039 7.91466 12.6158 7.91466C 8.58597 7.91466 5.24413 11.321 5.24413 15.4286L 5.24413 22.2412C 2.49203 23.1429 0.133084 25.7477 0.0347945 29.3544C -0.161784 35.0649 0.329664 42.2783 5.34242 47.4879C 9.56886 51.8961 16.1543 54 25.3935 54C 33.748 54 39.9403 51.4954 43.8718 46.4861C 46.5257 42.9796 48 38.2709 48 32.961L 48 24.6456C 48 20.538 44.6582 17.1317 40.6283 17.1317C 39.9403 17.1317 39.3505 17.2319 38.6625 17.4323L 38.6625 15.128C 38.6625 11.0204 35.3207 7.6141 31.2908 7.6141C 30.6028 7.6141 29.9148 7.71429 29.325 7.91466L 29.325 7.51391C 29.2267 3.40631 25.9832 3.82177e-07 21.9533 3.82177e-07Z"/>
<path id="path2_stroke" d="M 0.99989 -0.0146413C 0.991803 -0.566867 0.537581 -1.00798 -0.0146447 -0.999892C -0.56687 -0.991806 -1.00798 -0.537584 -0.999896 0.014642L 0.99989 -0.0146413ZM -0.803313 13.4395C -0.795226 13.9917 -0.341004 14.4328 0.211222 14.4248C 0.763447 14.4167 1.20456 13.9624 1.19647 13.4102L -0.803313 13.4395ZM -0.999896 0.014642L -0.803313 13.4395L 1.19647 13.4102L 0.99989 -0.0146413L -0.999896 0.014642Z"/>
<path id="path3_stroke" d="M 0.999063 -0.0432405C 0.975181 -0.595009 0.508525 -1.02295 -0.0432436 -0.999063C -0.595012 -0.975181 -1.02295 -0.508525 -0.999066 0.0432436L 0.999063 -0.0432405ZM -0.409332 13.6685C -0.38545 14.2202 0.081207 14.6482 0.632975 14.6243C 1.18474 14.6004 1.61268 14.1338 1.5888 13.582L -0.409332 13.6685ZM -0.999066 0.0432436L -0.409332 13.6685L 1.5888 13.582L 0.999063 -0.0432405L -0.999066 0.0432436Z"/>
<path id="path4_stroke" d="M 1 0C 1 -0.552285 0.552288 -1 3.05176e-06 -1C -0.552282 -1 -0.999997 -0.552285 -0.999997 0L 1 0ZM -0.999997 12.423C -0.999997 12.9753 -0.552282 13.423 3.05176e-06 13.423C 0.552288 13.423 1 12.9753 1 12.423L -0.999997 12.423ZM -0.999997 0L -0.999997 12.423L 1 12.423L 1 0L -0.999997 0Z"/>
<path id="path5_stroke" d="M 1.29461 0.0228103C 1.30721 -0.529331 0.869821 -0.987142 0.31768 -0.999739C -0.234462 -1.01234 -0.692273 -0.574951 -0.70487 -0.0228096L 1.29461 0.0228103ZM -0.999741 12.9011C -1.01234 13.4533 -0.574953 13.9111 -0.0228115 13.9237C 0.52933 13.9363 0.987141 13.4989 0.999738 12.9467L -0.999741 12.9011ZM -0.70487 -0.0228096L -0.999741 12.9011L 0.999738 12.9467L 1.29461 0.0228103L -0.70487 -0.0228096Z"/>
<path id="path6_fill" d="M 31.8448 65.9382C 27.4162 65.9382 22.9875 64.954 18.854 62.9857C 15.5079 61.4111 12.3586 59.3443 9.30777 56.5887C 4.48543 52.2584 1.72981 47.9282 1.43456 47.4361C -0.632157 44.3852 -0.435327 40.8423 1.82822 38.4803C 3.0092 37.2993 4.48543 36.7089 6.06007 36.7089C 7.73313 36.7089 9.30777 37.3978 10.5872 38.5787L 13.0475 41.0391L 13.0475 13.6797C 13.0475 10.432 15.7048 7.7748 18.9525 7.7748C 19.5429 7.7748 20.035 7.87321 20.5271 7.97163L 22.397 8.4637L 22.397 5.80649C 22.397 4.23185 23.0859 2.75562 24.1685 1.67306C 25.251 0.590491 26.7273 2.3464e-08 28.3019 2.3464e-08C 29.8765 2.3464e-08 31.3528 0.590491 32.4353 1.77147C 33.5179 2.85404 34.2068 4.33027 34.2068 5.90491L 34.2068 8.07004L 36.0767 7.57797C 36.5688 7.47955 37.1593 7.38114 37.7498 7.38114C 40.9975 7.38114 43.6547 10.0383 43.6547 13.286L 43.6547 17.1242L 45.5245 16.6322C 46.0166 16.5337 46.6071 16.4353 47.0992 16.4353C 50.3469 16.4353 53.0041 19.0925 53.0041 22.3402L 53.0041 46.6488C 53.0041 51.5695 51.6263 55.8998 49.1659 59.0491C 45.5245 63.5762 39.7181 65.9382 31.8448 65.9382Z"/>
<path id="path7_fill" d="M 29.8216 2.95245C 31.0026 2.95245 32.0851 3.44453 32.9709 4.23185C 33.7582 5.01917 34.2503 6.20015 34.2503 7.38114L 34.2503 7.67638L 34.2503 11.5146L 37.99 10.5304C 38.3837 10.432 38.7773 10.3336 39.2694 10.3336C 41.7298 10.3336 43.6981 12.3019 43.6981 14.7623L 43.6981 16.7306L 43.6981 20.5688L 47.4379 19.5846C 47.8315 19.4862 48.2252 19.3878 48.6189 19.3878C 49.7998 19.3878 50.8824 19.8799 51.7681 20.6672C 52.5555 21.4545 53.0475 22.6355 53.0475 23.8165L 53.0475 48.125C 53.0475 52.7505 51.8666 56.6871 49.5046 59.6396C 46.2569 63.773 40.8441 65.8397 33.4629 65.8397C 29.2311 65.8397 25.0976 64.8556 21.0626 63.0841C 17.9133 61.6079 14.764 59.5412 11.91 56.9824C 7.2845 52.8489 4.62729 48.6171 4.33204 48.125C 2.65899 45.6646 2.7574 42.909 4.52887 41.1375C 5.41461 40.2518 6.59559 39.7597 7.77657 39.7597C 9.05597 39.7597 10.3354 40.2518 11.2211 41.236L 16.2403 46.0583L 16.2403 39.0708L 16.2403 15.1559C 16.2403 12.6956 18.2086 10.7273 20.669 10.7273C 21.0626 10.7273 21.4563 10.8257 21.8499 10.9241L 25.5897 11.9082L 25.5897 8.07004L 25.5897 7.28272C 25.5897 6.10174 26.0818 5.01917 26.8691 4.23185C 27.558 3.34612 28.6406 2.95245 29.8216 2.95245ZM 29.8216 1.4665e-09C 27.8533 1.4665e-09 26.0818 0.787321 24.6056 2.16513C 23.2278 3.54295 22.4404 5.31442 22.4404 7.28272L 22.4404 8.07004C 21.7515 7.87321 21.161 7.7748 20.4721 7.7748C 16.4371 7.7748 13.091 11.1209 13.091 15.1559L 13.091 39.0708C 11.5163 37.5946 9.64646 36.8073 7.57974 36.8073C 5.61144 36.8073 3.64314 37.5946 2.26532 39.0708C -0.490299 41.8264 -0.785545 46.1567 1.67483 49.7981C 2.06849 50.487 4.92253 54.9157 9.84329 59.2459C 12.9926 62.0015 16.2403 64.2651 19.6848 65.8397C 24.1135 67.9065 28.6406 68.8906 33.3645 68.8906C 41.7298 68.8906 47.93 66.4302 51.7681 61.6079C 54.5238 58.1634 56 53.5378 56 48.3218L 56 24.0133C 56 19.9783 52.6539 16.6322 48.6189 16.6322C 47.93 16.6322 47.3395 16.7306 46.6506 16.9274L 46.6506 14.9591C 46.6506 10.9241 43.3044 7.57797 39.2694 7.57797C 38.5805 7.57797 37.8916 7.67638 37.3011 7.87321L 37.3011 7.38114C 37.3011 5.41283 36.5138 3.54295 35.136 2.16513C 33.6598 0.787321 31.7899 1.4665e-09 29.8216 1.4665e-09Z"/>
<path id="path8_stroke" d="M 1 9.3856e-08C 1 -0.552285 0.552285 -1 0 -1C -0.552285 -1 -1 -0.552285 -1 9.3856e-08L 1 9.3856e-08ZM -1 30.4103C -1 30.9626 -0.552285 31.4103 0 31.4103C 0.552285 31.4103 1 30.9626 1 30.4103L -1 30.4103ZM -1 9.3856e-08L -1 30.4103L 1 30.4103L 1 9.3856e-08L -1 9.3856e-08Z"/>
<path id="path9_stroke" d="M 1.29519 0.00996607C 1.3007 -0.542291 0.857468 -0.994446 0.30521 -0.999951C -0.247047 -1.00545 -0.699202 -0.562224 -0.704706 -0.00996644L 1.29519 0.00996607ZM -0.999951 29.613C -1.00546 30.1653 -0.562224 30.6174 -0.00996701 30.6229C 0.54229 30.6284 0.994445 30.1852 0.99995 29.6329L -0.999951 29.613ZM -0.704706 -0.00996644L -0.999951 29.613L 0.99995 29.6329L 1.29519 0.00996607L -0.704706 -0.00996644Z"/>
<path id="path10_stroke" d="M 1.1968 0.00816321C 1.20131 -0.544103 0.757261 -0.995458 0.204995 -0.999966C -0.347272 -1.00447 -0.798627 -0.560429 -0.803135 -0.00816284L 1.1968 0.00816321ZM -0.999966 24.1036C -1.00447 24.6558 -0.560429 25.1072 -0.00816227 25.1117C 0.544104 25.1162 0.995459 24.6721 0.999967 24.1199L -0.999966 24.1036ZM -0.803135 -0.00816284L -0.999966 24.1036L 0.999967 24.1199L 1.1968 0.00816321L -0.803135 -0.00816284Z"/>
</defs>
</svg>
