<svg width="651" height="480" viewBox="0 0 651 480" version="1.1" xmlns="http://www.w3.org/2000/svg" xmlns:xlink="http://www.w3.org/1999/xlink">
<title>Group</title>
<desc>Created using Figma</desc>
<g id="Canvas" transform="translate(446 -26426)">
<g id="Group">
<g id="Group">
<g id="Vector">
<use xlink:href="#path0_fill" transform="translate(-444.074 26426)" fill="#5E4F7E"/>
</g>
<g id="Vector">
<use xlink:href="#path1_fill" transform="translate(-83.8586 26596.9)" fill="#68578A"/>
</g>
<g id="Vector">
<use xlink:href="#path2_fill" transform="translate(-83.8586 26739.5)" fill="#68578A"/>
</g>
<g id="Vector">
<use xlink:href="#path3_fill" transform="translate(-83.8586 26436.4)" fill="#68578A"/>
</g>
<g id="Vector">
<use xlink:href="#path4_fill" transform="translate(-278.916 26596.9)" fill="#68578A"/>
</g>
<g id="Vector">
<use xlink:href="#path5_fill" transform="translate(-284.065 26739.5)" fill="#68578A"/>
</g>
<g id="Vector">
<use xlink:href="#path6_fill" transform="translate(-150.688 26452.1)" fill="#7E6FB4"/>
</g>
<g id="Vector">
<use xlink:href="#path7_fill" transform="translate(-144.526 26453)" fill="#5E4F7E"/>
</g>
<g id="Vector">
<use xlink:href="#path8_fill" transform="translate(-446 26838.8)" fill="#1D2A48"/>
</g>
<g id="Vector">
<use xlink:href="#path9_fill" transform="translate(137.01 26838.6)" fill="#1D2A48"/>
</g>
<g id="Vector">
<use xlink:href="#path10_fill" transform="translate(-267.293 26879.8)" fill="#1D2A48"/>
</g>
<g id="Vector">
<use xlink:href="#path11_fill" transform="translate(28.7088 26694.7)" fill="#8F82D1"/>
</g>
<g id="Vector">
<use xlink:href="#path12_fill" transform="translate(25.391 26691.7)" fill="#1D2A48"/>
</g>
<g id="Vector">
<use xlink:href="#path13_fill" transform="translate(-281.029 26694.7)" fill="#8F82D1"/>
</g>
<g id="Vector">
<use xlink:href="#path14_fill" transform="translate(-277.948 26691.7)" fill="#1D2A48"/>
</g>
<g id="Group">
<g id="Vector">
<use xlink:href="#path15_fill" transform="translate(-35.9878 26884.6)" fill="#495E88"/>
</g>
<g id="Vector">
<use xlink:href="#path16_fill" transform="translate(-26.2714 26884.3)" fill="#495E88"/>
</g>
<g id="Vector">
<use xlink:href="#path17_fill" transform="translate(-15.8442 26884.1)" fill="#495E88"/>
</g>
<g id="Vector">
<use xlink:href="#path18_fill" transform="translate(12.8309 26882.7)" fill="#495E88"/>
</g>
<g id="Vector">
<use xlink:href="#path19_fill" transform="translate(4.06247 26883.1)" fill="#495E88"/>
</g>
<g id="Vector">
<use xlink:href="#path20_fill" transform="translate(-6.12781 26883.6)" fill="#495E88"/>
</g>
<g id="Vector">
<use xlink:href="#path21_fill" transform="translate(-71.2984 26885)" fill="#495E88"/>
</g>
<g id="Vector">
<use xlink:href="#path22_fill" transform="translate(-44.7562 26884.8)" fill="#495E88"/>
</g>
<g id="Vector">
<use xlink:href="#path23_fill" transform="translate(-54.9465 26885)" fill="#495E88"/>
</g>
<g id="Vector">
<use xlink:href="#path24_fill" transform="translate(-64.4259 26885)" fill="#495E88"/>
</g>
<g id="Vector">
<use xlink:href="#path25_fill" transform="translate(-211.83 26883.6)" fill="#495E88"/>
</g>
<g id="Vector">
<use xlink:href="#path26_fill" transform="translate(-221.309 26883.4)" fill="#495E88"/>
</g>
<g id="Vector">
<use xlink:href="#path27_fill" transform="translate(-230.789 26882.9)" fill="#495E88"/>
</g>
<g id="Vector">
<use xlink:href="#path28_fill" transform="translate(-259.227 26880.8)" fill="#495E88"/>
</g>
<g id="Vector">
<use xlink:href="#path29_fill" transform="translate(-249.747 26881.5)" fill="#495E88"/>
</g>
<g id="Vector">
<use xlink:href="#path30_fill" transform="translate(-239.557 26882.4)" fill="#495E88"/>
</g>
<g id="Vector">
<use xlink:href="#path31_fill" transform="translate(-172.017 26884.6)" fill="#495E88"/>
</g>
<g id="Vector">
<use xlink:href="#path32_fill" transform="translate(-201.877 26883.9)" fill="#495E88"/>
</g>
<g id="Vector">
<use xlink:href="#path33_fill" transform="translate(-192.16 26884.1)" fill="#495E88"/>
</g>
<g id="Vector">
<use xlink:href="#path34_fill" transform="translate(-181.733 26884.3)" fill="#495E88"/>
</g>
</g>
<g id="Vector">
<use xlink:href="#path35_fill" transform="translate(-271.319 26436.4)" fill="#68578A"/>
</g>
<g id="Vector">
<use xlink:href="#path36_fill" transform="translate(-352.598 26469.1)" fill="#68578A"/>
</g>
<g id="Vector">
<use xlink:href="#path37_fill" transform="translate(-399.284 26588.6)" fill="#68578A"/>
</g>
<g id="Vector">
<use xlink:href="#path38_fill" transform="translate(-441.03 26711.7)" fill="#68578A"/>
</g>
<g id="Vector">
<use xlink:href="#path39_fill" transform="translate(39.2824 26469.1)" fill="#68578A"/>
</g>
<g id="Vector">
<use xlink:href="#path40_fill" transform="translate(38.7029 26588.6)" fill="#68578A"/>
</g>
<g id="Vector">
<use xlink:href="#path41_fill" transform="translate(73.4987 26711.7)" fill="#68578A"/>
</g>
<g id="Vector">
<use xlink:href="#path42_fill" transform="translate(-289.087 26453.7)" fill="#7E6FB4"/>
</g>
</g>
</g>
</g>
<defs>
<path id="path0_fill" fill-rule="evenodd" d="M 643.885 401.925C 650.284 382.018 579.663 231.77 545.3 123.469C 520.18 43.842 490.794 25.3573 467.569 17.5368C 465.436 16.8259 463.54 16.3519 461.408 15.6409C 455.483 13.982 449.795 12.5601 445.056 10.9013C 428.23 5.9246 410.93 2.36984 393.867 0C 393.867 0.236984 393.867 0.473968 393.867 0.710952C 393.867 16.1149 362.348 28.912 323.483 28.912C 284.618 28.912 253.099 16.3519 253.099 0.710952C 230.111 3.79174 212.101 7.82047 201.673 10.9013C 177.975 19.9066 135.792 14.93 101.666 123.232C 67.5404 231.77 -3.31777 382.018 3.08079 401.925C 7.82047 415.907 1.89587 432.733 2.82507e-08 442.686C 13.5081 446.004 46.6858 457.616 54.2693 464.014C 56.4022 451.691 63.5117 431.548 78.4417 430.6C 94.7936 411.404 145.271 297.178 159.727 245.041C 150.722 298.6 152.855 436.05 169.917 447.426C 180.108 453.113 185.795 471.361 183.663 479.181C 194.09 476.575 258.786 475.153 323.483 475.153C 388.18 475.153 452.876 476.575 463.303 479.181C 460.934 471.124 466.621 453.113 477.049 447.426C 494.111 436.05 496.481 298.363 487.239 245.041C 501.695 297.178 552.172 411.167 568.524 430.6C 583.454 431.785 590.801 451.691 592.697 464.014C 600.28 457.616 633.458 446.004 646.966 442.686C 645.07 432.496 639.146 415.907 643.885 401.925Z"/>
<path id="path1_fill" fill-rule="evenodd" d="M 100.244 -3.61609e-06C 69.1993 -3.61609e-06 44.316 -3.61609e-06 13.5081 -3.61609e-06C 6.16158 -3.61609e-06 7.23217e-06 6.39856 7.23217e-06 14.219C 7.23217e-06 47.6338 7.23217e-06 81.0485 7.23217e-06 114.463C 7.23217e-06 122.284 6.16158 128.682 13.5081 128.682C 44.553 128.682 75.3609 128.682 106.406 128.682C 113.752 128.682 121.81 113.515 121.336 105.695C 119.44 72.2801 113.752 46.9228 111.145 13.5081C 110.671 5.68762 107.591 -3.61609e-06 100.244 -3.61609e-06Z"/>
<path id="path2_fill" fill-rule="evenodd" d="M 112.33 7.23217e-06C 81.2855 7.23217e-06 44.316 7.23217e-06 13.5081 7.23217e-06C 6.16158 7.23217e-06 7.23217e-06 6.39857 7.23217e-06 14.219C 7.23217e-06 47.6338 7.23217e-06 81.0485 7.23217e-06 114.463C 7.23217e-06 122.284 6.16158 128.682 13.5081 128.682C 44.553 128.682 75.3609 128.682 106.406 128.682C 113.752 128.682 119.203 122.284 119.914 114.463C 122.758 81.0485 128.445 47.6338 125.838 14.219C 125.127 6.39857 119.677 7.23217e-06 112.33 7.23217e-06Z"/>
<path id="path3_fill" fill-rule="evenodd" d="M 100.244 14.284C 78.4417 7.17453 63.7487 3.14581 42.8941 0.0650164C 34.5996 -1.1199 22.7505 14.284 13.5081 14.284C 6.16158 14.284 7.23217e-06 20.6826 7.23217e-06 28.5031C 7.23217e-06 61.9178 7.23217e-06 95.3325 7.23217e-06 128.747C 7.23217e-06 136.568 6.16158 142.966 13.5081 142.966C 44.553 142.966 64.2226 142.966 95.2675 142.966C 102.614 142.966 109.013 136.568 108.776 128.747C 107.828 94.3846 111.619 60.7329 113.752 28.5031C 114.226 20.6826 107.354 16.6539 100.244 14.284Z"/>
<path id="path4_fill" fill-rule="evenodd" d="M 21.1115 -3.61609e-06C 52.1564 -3.61609e-06 77.0397 -3.61609e-06 107.848 -3.61609e-06C 115.194 -3.61609e-06 121.356 6.39856 121.356 14.219C 121.356 47.6338 121.356 81.0485 121.356 114.463C 121.356 122.284 115.194 128.682 107.848 128.682C 76.8027 128.682 45.9948 128.682 14.9499 128.682C 7.60344 128.682 -0.454016 113.515 0.0199514 105.695C 1.91582 72.2801 7.60344 46.9228 10.2103 13.5081C 10.6842 5.68762 13.765 -3.61609e-06 21.1115 -3.61609e-06Z"/>
<path id="path5_fill" fill-rule="evenodd" d="M 14.1746 7.23217e-06C 45.2194 7.23217e-06 82.1889 7.23217e-06 112.997 7.23217e-06C 120.343 7.23217e-06 126.505 6.39857 126.505 14.219C 126.505 47.6338 126.505 81.0485 126.505 114.463C 126.505 122.284 120.343 128.682 112.997 128.682C 81.9519 128.682 51.144 128.682 20.0991 128.682C 12.7527 128.682 7.30201 122.284 6.59106 114.463C 3.74725 81.0485 -1.94036 47.6338 0.66646 14.219C 1.37741 6.39857 6.82805 7.23217e-06 14.1746 7.23217e-06Z"/>
<path id="path6_fill" fill-rule="evenodd" d="M 30.8784 2.60682C 19.6941 2.60682 9.23921 1.65889 -3.70998e-06 0L -3.70998e-06 449.558L 62 449.558L 62 0C 52.5177 1.65889 42.0628 2.60682 30.8784 2.60682Z"/>
<path id="path7_fill" fill-rule="evenodd" d="M 25 1.65889C 16.0891 1.65889 7.67326 0.947935 -7.55386e-06 -9.04022e-07L -7.55386e-06 448.374L 50 448.374L 50 -9.04022e-07C 42.3267 1.18492 33.9109 1.65889 25 1.65889Z"/>
<path id="path8_fill" fill-rule="evenodd" d="M 67.8074 24.1723C 69.9403 25.8312 63.5417 42.1831 58.0911 49.5296C 56.9062 50.9515 55.9583 52.1365 53.3514 50.7146C 43.1611 45.027 16.145 37.2065 2.87385 31.0449C 0.977983 30.097 -0.206936 26.7792 0.0300478 25.3573C 1.45195 13.7451 3.82179 0.236977 6.6656 -7.23217e-06C 21.8326 18.0108 48.3748 22.9874 67.8074 24.1723Z"/>
<path id="path9_fill" fill-rule="evenodd" d="M 0 24.4114C 0 30.573 6.16157 44.318 9.95332 49.5317C 12.0862 52.6125 12.0862 51.9015 15.404 50.0056C 25.5943 43.8441 50.4775 35.3126 63.5117 31.5209C 65.4075 31.0469 67.7774 29.625 67.5404 27.7292C 67.0664 20.1457 64.6966 -0.23492 61.1418 0.00206382C 44.316 18.2498 17.7738 22.9895 0 24.4114Z"/>
<path id="path10_fill" fill-rule="evenodd" d="M 292.21 2.13284C 293.395 3.55474 288.892 21.3286 287.944 24.4093C 287.47 26.3052 286.286 26.3052 284.153 26.0682C 273.014 24.4093 237.941 22.5135 196.232 22.0395L 196.232 5.45064C 241.259 4.97667 279.65 3.79173 292.21 2.13284ZM 97.4094 21.8025C 55.4632 22.2765 19.9157 24.1723 8.77741 25.8312C 5.69662 26.3052 5.93362 24.4093 5.69663 23.4614C 4.27473 16.8258 -0.227967 4.50269 0.00901665 6.73549e-14C 15.176 2.36984 53.3304 4.02873 97.4094 4.73968L 97.4094 21.8025Z"/>
<path id="path11_fill" fill-rule="evenodd" d="M 7.23217e-06 3.61609e-06L 5.9246 3.61609e-06L 12.0862 137.688L 6.16157 137.688L 7.23217e-06 3.61609e-06Z"/>
<path id="path12_fill" fill-rule="evenodd" d="M 6.16158 25.5943C 9.47936 25.5943 12.3232 19.9066 12.3232 12.7971C 12.3232 5.68761 9.47936 -3.61609e-06 6.16158 -3.61609e-06C 2.84381 -3.61609e-06 -1.44643e-05 5.68761 -1.44643e-05 12.7971C 0.236969 19.6697 2.84381 25.5943 6.16158 25.5943Z"/>
<path id="path13_fill" fill-rule="evenodd" d="M 12.0862 3.61609e-06L 6.16157 3.61609e-06L -3.61609e-06 137.688L 5.92459 137.688L 12.0862 3.61609e-06Z"/>
<path id="path14_fill" fill-rule="evenodd" d="M 6.16158 25.5943C 9.47936 25.5943 12.3232 19.9066 12.3232 12.7971C 12.3232 5.68761 9.47936 -3.61609e-06 6.16158 -3.61609e-06C 2.84381 -3.61609e-06 3.61609e-06 5.68761 3.61609e-06 12.7971C 3.61609e-06 19.6697 2.60682 25.5943 6.16158 25.5943Z"/>
<path id="path15_fill" d="M 4.50268 0C 4.73966 3.55476 5.21365 7.34649 5.45064 11.1382C 5.68762 13.5081 5.92461 15.8779 6.1616 18.2478C 4.73969 18.2478 3.31777 18.2478 1.65888 18.0108C 1.4219 15.8779 1.18491 13.7451 0.947921 11.6122C 0.473953 7.82045 0.236984 3.79176 0 0.236998L 4.50268 0Z"/>
<path id="path16_fill" d="M 4.50269 -1.44643e-05C 4.73968 3.55474 4.97667 7.1095 5.21365 10.6643C 5.45064 13.5081 5.68763 16.1149 5.92461 18.7217C 4.50271 18.7217 3.08078 18.4847 1.4219 18.4847C 1.18491 15.8779 0.947921 13.5081 0.710937 10.9013C 0.473953 7.3465 0.236998 3.55474 1.44643e-05 -1.44643e-05L 4.50269 -1.44643e-05Z"/>
<path id="path17_fill" d="M 4.50268 7.23217e-06C 4.50268 3.55477 4.73968 7.3465 4.73968 11.1382C 4.73968 13.982 4.97668 16.8259 4.97668 19.6697C 3.55477 19.6697 2.13285 19.4327 0.473961 19.4327C 0.473961 16.8259 0.236998 13.9821 0.236998 11.3752C 1.44608e-05 7.5835 0 4.02871 0 0.236969C 1.65889 -1.44608e-05 3.08078 7.23217e-06 4.50268 7.23217e-06Z"/>
<path id="path18_fill" d="M 4.97666 -7.23217e-06C 4.97666 4.02872 4.73969 8.29444 4.73969 12.5601C 4.73969 16.1149 4.50268 19.6697 4.2657 23.2244L 4.02873 23.2244C 2.84381 22.9874 1.6589 22.9874 1.44643e-05 22.7505C 0.236998 19.4327 0.236977 16.1149 0.236977 12.5601C 0.236977 8.53142 0.473975 4.2657 0.473975 0.473953C 2.13286 0.236969 3.55475 -7.23217e-06 4.97666 -7.23217e-06Z"/>
<path id="path19_fill" d="M 4.5027 -1.44643e-05C 4.5027 4.02871 4.5027 8.05744 4.5027 11.8492C 4.5027 15.167 4.50269 18.2478 4.2657 21.5655C 2.8438 21.3286 1.42189 21.3285 -1.44643e-05 21.3285C -1.44643e-05 18.2477 0.236984 15.167 0.236984 12.0862C 0.236984 8.05745 0.236984 4.26572 0.236984 0.473982C 1.65889 0.236998 3.0808 0.236969 4.5027 -1.44643e-05Z"/>
<path id="path20_fill" d="M 4.2657 1.44643e-05C 4.2657 3.79176 4.50269 7.58347 4.50269 11.3752C 4.50269 14.456 4.50269 17.2998 4.50269 20.3806C 3.08079 20.3806 1.65888 20.1436 0.236977 20.1436C 0.236977 17.2998 0.236977 14.456 0.236977 11.6122C 0.236977 7.82047 1.44643e-05 4.02872 1.44643e-05 0.236977C 1.42192 0.236977 2.84379 1.44643e-05 4.2657 1.44643e-05Z"/>
<path id="path21_fill" d="M 1.65889 -7.23217e-06C 1.65889 1.89586 1.65889 4.02872 1.65889 5.92459C 1.65889 9.47935 1.89586 13.2711 1.89586 16.8259L 1.44643e-05 16.8259L 1.44643e-05 0.236991L 1.65889 -7.23217e-06Z"/>
<path id="path22_fill" d="M 0.947928 17.5368C 0.710944 13.0341 0.473953 8.29445 0.236969 3.55477C 0.236969 2.36985 7.23217e-06 1.18493 7.23217e-06 1.44643e-05L 4.26572 1.44643e-05C 4.26572 1.18493 4.50269 2.13285 4.50269 3.31777C 4.73967 8.05745 4.97666 13.0341 5.21365 17.7738C 4.02873 17.5368 2.60682 17.5368 0.947928 17.5368Z"/>
<path id="path23_fill" d="M 1.18492 17.0628C 0.947936 13.5081 0.710944 9.71635 0.473961 6.16159C 0.236977 4.02873 0.236984 1.89586 0 -7.23217e-06L 4.26572 -7.23217e-06C 4.5027 1.89586 4.50269 4.02872 4.73968 5.92459C 4.97666 9.71633 5.21365 13.5081 5.45064 17.2998L 1.18492 17.0628Z"/>
<path id="path24_fill" d="M 0.473961 16.8259C 0.473961 13.2711 0.236998 9.71633 0.236998 5.92459C 0.236998 3.79173 0 1.89586 0 -7.23217e-06L 4.26572 -7.23217e-06C 4.26572 1.89586 4.50268 4.02872 4.50268 5.92459C 4.73966 9.71633 4.73968 13.2711 4.73968 17.0628L 0.473961 16.8259Z"/>
<path id="path25_fill" d="M 6.39857 0.236977C 6.16158 4.2657 5.68761 8.29442 5.21365 12.5601C 4.97666 14.693 4.73967 16.8259 4.50269 18.9587C 3.08078 18.9587 1.42191 18.9587 7.23217e-06 19.1957C 0.236991 16.8258 0.473964 14.456 0.710948 12.0862C 1.18492 8.05745 1.4219 4.02874 1.89587 1.44643e-05L 6.39857 0.236977Z"/>
<path id="path26_fill" d="M 6.16158 6.73549e-14C 5.9246 3.79174 5.68761 7.82047 5.21365 11.8492C 4.97666 14.456 4.73967 17.0628 4.50269 19.4327C 3.08078 19.4327 1.42191 19.6697 7.23217e-06 19.6697C 0.236991 17.0628 0.473964 14.219 0.710948 11.6122C 0.947932 7.82045 1.4219 3.79174 1.65889 6.73549e-14L 6.16158 6.73549e-14Z"/>
<path id="path27_fill" d="M 5.21365 0.236969C 5.21365 4.2657 4.97667 8.29444 4.73969 12.3232C 4.73969 15.167 4.50269 17.7738 4.50269 20.3806C 3.08078 20.3806 1.65889 20.6176 7.23217e-06 20.6176C 0.236991 17.7738 0.236988 14.93 0.236988 12.0862C 0.473971 8.05744 0.473964 3.79175 0.710948 7.23217e-06C 2.36984 7.23217e-06 3.79174 -1.44608e-05 5.21365 0.236969Z"/>
<path id="path28_fill" d="M 4.50269 0.473982C 4.50269 4.97668 4.73969 9.71632 4.73969 14.219C 4.73969 17.7738 4.97667 21.0916 4.97667 24.4093C 3.31778 24.6463 1.89587 24.8833 0.710948 24.8833C 0.473964 21.3285 0.473971 17.7738 0.236988 14.219C 3.61962e-06 9.47934 7.23217e-06 4.50268 7.23217e-06 -1.44643e-05C 1.42191 0.236969 2.8438 0.473982 4.50269 0.473982Z"/>
<path id="path29_fill" d="M 4.26571 0.473953C 4.26571 4.73966 4.26571 9.24236 4.26571 13.5081C 4.26571 16.5889 4.2657 19.9066 4.50269 22.9874C 2.8438 22.9874 1.42191 23.2244 0.236988 23.2244C 0.236988 20.1436 7.23217e-06 16.8258 7.23217e-06 13.5081C 7.23217e-06 9.00537 7.23217e-06 4.50269 7.23217e-06 -7.23217e-06C 1.18493 0.236977 2.60682 0.473953 4.26571 0.473953Z"/>
<path id="path30_fill" d="M 4.50269 0.236977C 4.50269 4.2657 4.26571 8.53142 4.26571 12.7971C 4.26571 15.6409 4.26571 18.7217 4.26571 21.5655C 2.84381 21.5655 1.18492 21.8025 -3.61609e-06 21.8025C -3.61609e-06 18.9587 -3.61609e-06 15.8779 -3.61609e-06 12.7971C -3.61609e-06 8.53142 0.236977 4.26572 0.236977 1.44643e-05C 1.4219 1.44643e-05 2.84381 -7.23924e-06 4.50269 0.236977Z"/>
<path id="path31_fill" d="M -3.61609e-06 17.2998C -3.61609e-06 13.7451 0.236977 10.1903 0.236977 6.39856C 0.236977 4.2657 0.236977 2.13285 0.236977 -6.73549e-14L 1.89587 -6.73549e-14L 1.89587 17.0628L -3.61609e-06 17.2998Z"/>
<path id="path32_fill" d="M 0 18.4847C 0.236984 13.7451 0.473975 8.76839 0.710959 4.02871C 0.710959 2.60681 0.947939 1.4219 0.947939 -7.23217e-06L 5.21364 0.236991C 5.21364 1.65889 4.97666 3.08081 4.97666 4.50271C 4.73967 9.24239 4.5027 13.9821 4.26572 18.4847C 2.84381 18.4847 1.4219 18.4847 0 18.4847Z"/>
<path id="path33_fill" d="M -3.61609e-06 18.0108C 0.23698 14.219 0.473971 10.4273 0.710955 6.63556C 0.947939 4.50271 0.947932 2.13286 1.18492 7.23217e-06L 5.45063 7.23217e-06C 5.21365 2.13286 5.21364 4.50269 4.97665 6.87253C 4.73967 10.4273 4.5027 14.219 4.26571 17.7738L -3.61609e-06 18.0108Z"/>
<path id="path34_fill" d="M 0 17.5368C 0 13.9821 0.23698 10.1903 0.23698 6.39858C 0.23698 4.26572 0.473961 2.13284 0.473961 -1.44643e-05L 4.73968 -1.44643e-05C 4.73968 2.13284 4.5027 4.2657 4.5027 6.63554C 4.26571 10.1903 4.26572 13.9821 4.26572 17.5368L 0 17.5368Z"/>
<path id="path35_fill" fill-rule="evenodd" d="M 13.514 14.284C 35.3166 7.17453 50.0096 3.14581 70.8641 0.0650164C 79.1586 -1.1199 91.0078 14.284 100.25 14.284C 107.597 14.284 113.758 20.6826 113.758 28.5031C 113.758 61.9178 113.758 95.3325 113.758 128.747C 113.758 136.568 107.597 142.966 100.25 142.966C 69.2053 142.966 49.5356 142.966 18.4907 142.966C 11.1442 142.966 4.74564 136.568 4.98263 128.747C 5.93056 94.3846 2.13881 60.7329 0.0059507 28.5031C -0.231033 20.6826 6.64151 16.6539 13.514 14.284Z"/>
<path id="path36_fill" fill-rule="evenodd" d="M 50.0036 1.80804e-06C 58.298 3.55476 52.8474 1.89587 57.5871 4.02873C 63.9857 6.87253 66.8295 18.0108 68.0144 25.3573C 72.2801 54.0323 74.4129 92.4237 68.4883 124.18C 67.0664 131.526 60.4309 138.399 54.0323 135.792C 32.4668 127.023 18.4847 119.44 3.61609e-06 111.145C 3.79175 100.481 7.10951 90.0539 10.4273 80.1005C 22.7505 40.2873 36.4955 15.6409 50.0036 1.80804e-06Z"/>
<path id="path37_fill" fill-rule="evenodd" d="M 43.605 -3.61609e-06L 112.093 31.0449C 118.492 33.8887 121.099 41.7092 118.255 48.5817C 116.359 53.0844 112.567 79.8636 109.487 100.244C 104.273 115.648 97.4004 133.896 89.8169 152.618C 88.632 152.381 87.4471 152.144 86.4991 151.67C 64.9336 141.953 27.7271 126.075 1.80804e-06 113.989C 14.456 77.4937 30.3339 37.6804 43.605 -3.61609e-06Z"/>
<path id="path38_fill" fill-rule="evenodd" d="M 45.0641 1.01601C 71.8433 13.1022 93.1719 22.8185 119.951 34.9047C 123.269 36.3266 125.402 39.1704 126.587 42.2512C 107.391 87.9891 85.5884 133.49 75.635 144.865C 74.4501 144.865 73.2652 145.102 72.0803 145.576C 44.8271 143.917 16.863 130.646 0.0371768 114.294C -0.910759 100.549 16.3891 55.5223 38.1916 0.77903C 40.0875 -0.40589 42.4573 -0.168909 45.0641 1.01601Z"/>
<path id="path39_fill" fill-rule="evenodd" d="M 22.1302 1.80804e-06C 13.8358 3.55476 19.2864 1.89587 14.5467 4.02873C 8.14811 6.87253 5.30432 18.0108 4.1194 25.3573C -0.146312 54.0323 -2.27916 92.4237 3.64544 124.18C 5.06734 131.526 11.7029 138.399 18.1014 135.792C 39.667 127.023 53.649 119.44 72.1338 111.145C 68.342 100.481 65.0243 90.0539 61.7065 80.1005C 49.3833 40.2873 35.6383 15.6409 22.1302 1.80804e-06Z"/>
<path id="path40_fill" fill-rule="evenodd" d="M 75.7941 -3.61609e-06L 7.30575 31.0449C 0.907182 33.8887 -1.69966 41.7092 1.14415 48.5817C 3.04002 53.0844 6.83176 79.8636 9.91255 100.244C 15.1262 115.648 21.9987 133.896 29.5822 152.618C 30.7671 152.381 31.952 152.144 32.9 151.67C 54.4655 141.953 91.672 126.075 119.399 113.989C 104.943 77.4937 89.3022 37.6804 75.7941 -3.61609e-06Z"/>
<path id="path41_fill" fill-rule="evenodd" d="M 81.5225 1.01601C 54.7433 13.1022 33.4147 22.8185 6.63555 34.9047C 3.31777 36.3266 1.18491 39.1704 -7.23217e-06 42.2512C 19.1957 87.9891 40.9982 133.49 50.9515 144.865C 52.1364 144.865 53.3214 145.102 54.5063 145.576C 81.7594 143.917 109.724 130.646 126.549 114.294C 127.497 100.549 110.198 55.5223 88.395 0.77903C 86.4991 -0.40589 84.1293 -0.168909 81.5225 1.01601Z"/>
<path id="path42_fill" fill-rule="evenodd" d="M 333.91 0.236984C 334.858 0.947936 335.806 1.65889 336.754 2.36984C 327.512 37.9174 324.905 79.8636 325.616 120.388C 326.564 159.964 330.83 198.356 335.569 228.689C 334.384 224.661 333.199 220.869 332.251 217.314C 333.673 225.846 334.858 236.747 335.806 248.833C 329.882 216.366 323.483 169.206 322.535 120.388C 321.587 79.1526 324.431 36.4955 333.91 0.236984ZM 1.89587 239.828C 2.60682 231.296 3.55475 223.713 4.73967 217.314C 3.55475 221.817 1.89586 227.031 -7.23217e-06 232.481C 5.68761 203.806 12.3232 159.964 12.7971 112.567C 13.2711 76.0718 10.1903 37.4435 0.473971 2.13286C 1.42191 1.4219 2.36984 0.710951 3.31777 -4.52011e-07C 13.5081 35.7846 16.5889 75.3609 16.1149 112.567C 15.6409 163.993 7.82047 211.39 1.89587 239.828Z"/>
</defs>
</svg>
