<svg width="240" height="80" viewBox="0 0 240 80" version="1.1" xmlns="http://www.w3.org/2000/svg" xmlns:xlink="http://www.w3.org/1999/xlink">
<title>Frame 17</title>
<desc>Created using Figma</desc>
<g id="Canvas" transform="translate(-701 -27087)">
<clipPath id="clip-0" clip-rule="evenodd">
<path d="M 701 27087L 941 27087L 941 27167L 701 27167L 701 27087Z" fill="#FFFFFF"/>
</clipPath>
<g id="Frame 17" clip-path="url(#clip-0)">
<g id="Group">
<g id="Group">
<g id="Vector">
<use xlink:href="#path0_fill" transform="translate(711 27097)" fill="#F7DC4D"/>
</g>
<g id="Group">
<g id="Vector">
<use xlink:href="#path1_fill" transform="translate(741 27097)" fill="#F7DC4D"/>
</g>
<g id="Vector">
<use xlink:href="#path2_fill" transform="translate(718.36 27104.4)" fill="#DF871E"/>
</g>
</g>
</g>
<g id="Group">
<g id="Vector">
<use xlink:href="#path0_fill" transform="translate(791 27097)" fill="#F7DC4D"/>
</g>
<g id="Group">
<g id="Vector">
<use xlink:href="#path1_fill" transform="translate(821 27097)" fill="#F7DC4D"/>
</g>
<g id="Vector">
<use xlink:href="#path2_fill" transform="translate(798.36 27104.4)" fill="#DF871E"/>
</g>
</g>
<g id="Vector">
<use xlink:href="#path3_fill" transform="matrix(0.7122 -0.702 0.702 0.7122 811.554 27120.4)" fill="#BDAC92"/>
</g>
<g id="Vector">
<use xlink:href="#path4_fill" transform="matrix(0.7122 -0.702 0.702 0.7122 811.449 27133.3)" fill="#D7CCBD"/>
</g>
</g>
<g id="Group">
<g id="Vector">
<use xlink:href="#path0_fill" transform="translate(871 27097)" fill="#6FCF97"/>
</g>
<g id="Vector">
<use xlink:href="#path2_fill" transform="translate(878.36 27104.4)" fill="#27AE60"/>
</g>
<g id="Vector">
<use xlink:href="#path3_fill" transform="matrix(0.7122 -0.702 0.702 0.7122 891.554 27120.4)" fill="#BDAC92"/>
</g>
<g id="Vector">
<use xlink:href="#path4_fill" transform="matrix(0.7122 -0.702 0.702 0.7122 891.449 27133.3)" fill="#D7CCBD"/>
</g>
</g>
</g>
</g>
</g>
<defs>
<path id="path0_fill" d="M 30 0C 13.4299 0 0 13.4299 0 30C 0 46.5701 13.4299 60 30 60C 46.5701 60 60 46.5701 60 30C 60 13.4299 46.5701 0 30 0ZM 21.6028 42.3224C 19.4299 42.3224 17.6776 40.5701 17.6776 38.3972C 17.6776 36.2243 19.4299 34.472 21.6028 34.472C 23.7757 34.472 25.528 36.2243 25.528 38.3972C 25.528 40.5701 23.7757 42.3224 21.6028 42.3224ZM 21.6028 25.528C 19.4299 25.528 17.6776 23.7757 17.6776 21.6028C 17.6776 19.4299 19.4299 17.6776 21.6028 17.6776C 23.7757 17.6776 25.528 19.4299 25.528 21.6028C 25.528 23.7757 23.7757 25.528 21.6028 25.528ZM 38.3972 42.3224C 36.2243 42.3224 34.472 40.5701 34.472 38.3972C 34.472 36.2243 36.2243 34.472 38.3972 34.472C 40.5701 34.472 42.3224 36.2243 42.3224 38.3972C 42.3224 40.5701 40.5701 42.3224 38.3972 42.3224ZM 38.3972 25.528C 36.2243 25.528 34.472 23.7757 34.472 21.6028C 34.472 19.4299 36.2243 17.6776 38.3972 17.6776C 40.5701 17.6776 42.3224 19.4299 42.3224 21.6028C 42.3224 23.7757 40.5701 25.528 38.3972 25.528Z"/>
<path id="path1_fill" d="M 0 0L 0 60C 16.5701 60 30 46.5701 30 30C 30 13.4299 16.5701 0 0 0ZM 8.3972 42.3224C 6.2243 42.3224 4.47196 40.5701 4.47196 38.3972C 4.47196 36.2243 6.2243 34.472 8.3972 34.472C 10.5701 34.472 12.3224 36.2243 12.3224 38.3972C 12.3224 40.5701 10.5701 42.3224 8.3972 42.3224ZM 8.3972 25.528C 6.2243 25.528 4.47196 23.7757 4.47196 21.6028C 4.47196 19.4299 6.2243 17.6776 8.3972 17.6776C 10.5701 17.6776 12.3224 19.4299 12.3224 21.6028C 12.3224 23.7757 10.5701 25.528 8.3972 25.528Z"/>
<path id="path2_fill" d="M 22.6402 0C 10.1355 0 0 10.1355 0 22.6402C 0 35.1449 10.1355 45.2804 22.6402 45.2804C 35.1449 45.2804 45.2804 35.1449 45.2804 22.6402C 45.2804 10.1355 35.1449 0 22.6402 0ZM 14.243 34.9626C 12.0701 34.9626 10.3178 33.2103 10.3178 31.0374C 10.3178 28.8645 12.0701 27.1121 14.243 27.1121C 16.4159 27.1121 18.1682 28.8645 18.1682 31.0374C 18.1682 33.2103 16.4159 34.9626 14.243 34.9626ZM 14.243 18.1682C 12.0701 18.1682 10.3178 16.4159 10.3178 14.243C 10.3178 12.0701 12.0701 10.3178 14.243 10.3178C 16.4159 10.3178 18.1682 12.0701 18.1682 14.243C 18.1682 16.4159 16.4159 18.1682 14.243 18.1682ZM 31.0374 34.9626C 28.8645 34.9626 27.1121 33.2103 27.1121 31.0374C 27.1121 28.8645 28.8645 27.1121 31.0374 27.1121C 33.2103 27.1121 34.9626 28.8645 34.9626 31.0374C 34.9626 33.2103 33.2103 34.9626 31.0374 34.9626ZM 31.0374 18.1682C 28.8645 18.1682 27.1121 16.4159 27.1121 14.243C 27.1121 12.0701 28.8645 10.3178 31.0374 10.3178C 33.2103 10.3178 34.9626 12.0701 34.9626 14.243C 34.9626 16.4159 33.2103 18.1682 31.0374 18.1682Z"/>
<path id="path3_fill" d="M 4.20561 0L 0 0L 0 22.528L 4.20561 22.528L 4.20561 0Z"/>
<path id="path4_fill" d="M 22.528 0L 0 0L 0 4.20561L 22.528 4.20561L 22.528 0Z"/>
</defs>
</svg>
