<?xml version="1.0" encoding="utf-8"?>
<!-- Generator: Adobe Illustrator 18.0.0, SVG Export Plug-In . SVG Version: 6.00 Build 0)  -->
<!DOCTYPE svg PUBLIC "-//W3C//DTD SVG 1.1//EN" "http://www.w3.org/Graphics/SVG/1.1/DTD/svg11.dtd">
<svg version="1.1" id="Layer_1" xmlns="http://www.w3.org/2000/svg" xmlns:xlink="http://www.w3.org/1999/xlink" x="0px" y="0px"
	 width="600px" height="210px" viewBox="0 0 600 210" enable-background="new 0 0 600 210" xml:space="preserve">
<g>
	<g>
		<path fill="#FF5767" d="M578.6,40.6c-20.1-12.6-49.8-6.9-78.6-6.9c-28.9,0-58.6-5.7-78.6,6.9s-28.9,61.5-13.6,107.1
			c15.2,45.6,42.5,62.3,58.6,62.3s20.5-3.3,33.7-3.3s17.7,3.3,33.7,3.3c16.1,0,43.3-16.7,58.6-62.3
			C607.5,102.1,598.6,53.3,578.6,40.6z"/>
	</g>
	<g>
		<g>
			<path fill="#FF5767" d="M516.3,58.4c-32.4,0-52.7-9.4-53.7-9.9l2.5-5.2c0.3,0.1,28.2,13,70,8.3l0.6,5.7
				C528.8,58.1,522.3,58.4,516.3,58.4z"/>
		</g>
	</g>
	<g>
		<g>
			<polygon fill="#FF5767" points="499,55.6 484.3,1.5 489.8,0 504.5,54.1 			"/>
		</g>
	</g>
</g>
<path fill="#FFFFFF" d="M475.1,71.1l77.2,44.6c5.4,3.1,5.4,11,0,14.1l-77.2,44.6c-5.4,3.1-12.2-0.8-12.2-7.1V78.1
	C462.9,71.8,469.7,67.9,475.1,71.1z"/>
<g>
	<g>
		<path fill="#EF546B" d="M378.6,40.6c-20.1-12.6-49.8-6.9-78.6-6.9c-28.9,0-58.6-5.7-78.6,6.9s-28.9,61.5-13.6,107.1
			c15.2,45.6,42.5,62.3,58.6,62.3s20.5-3.3,33.7-3.3s17.7,3.3,33.7,3.3c16.1,0,43.3-16.7,58.6-62.3
			C407.5,102.1,398.6,53.3,378.6,40.6z"/>
	</g>
	<g>
		<g>
			<path fill="#EF546B" d="M316.3,58.4c-32.4,0-52.7-9.4-53.7-9.9l2.5-5.2c0.3,0.1,28.2,13,70,8.3l0.6,5.7
				C328.8,58.1,322.3,58.4,316.3,58.4z"/>
		</g>
	</g>
	<g>
		<g>
			<polygon fill="#EF546B" points="299,55.6 284.3,1.5 289.8,0 304.5,54.1 			"/>
		</g>
	</g>
</g>
<path fill="#FFFFFF" d="M275.1,71.1l77.2,44.6c5.4,3.1,5.4,11,0,14.1l-77.2,44.6c-5.4,3.1-12.2-0.8-12.2-7.1V78.1
	C262.9,71.8,269.7,67.9,275.1,71.1z"/>
<g>
	<g>
		<path fill="#EF546B" d="M178.6,40.6c-20.1-12.6-49.8-6.9-78.6-6.9c-28.9,0-58.6-5.7-78.6,6.9S-7.5,102.1,7.8,147.7
			C23,193.3,50.3,210,66.4,210s20.5-3.3,33.7-3.3s17.7,3.3,33.7,3.3c16.1,0,43.3-16.7,58.6-62.3C207.5,102.1,198.6,53.3,178.6,40.6z
			"/>
	</g>
	<g>
		<g>
			<path fill="#EF546B" d="M116.3,58.4c-32.4,0-52.7-9.4-53.7-9.9l2.5-5.2c0.3,0.1,28.2,13,70,8.3l0.6,5.7
				C128.8,58.1,122.3,58.4,116.3,58.4z"/>
		</g>
	</g>
	<g>
		<g>
			<polygon fill="#EF546B" points="99,55.6 84.3,1.5 89.8,0 104.5,54.1 			"/>
		</g>
	</g>
</g>
<path fill="#FF5767" d="M75.1,71.1l77.2,44.6c5.4,3.1,5.4,11,0,14.1l-77.2,44.6c-5.4,3.1-12.2-0.8-12.2-7.1V78.1
	C62.9,71.8,69.7,67.9,75.1,71.1z"/>
</svg>
