<svg version="1.2" baseProfile="tiny-ps" xmlns="http://www.w3.org/2000/svg" viewBox="0 0 220 249" width="220" height="249">
	<title>Layer</title>
	<style>
		tspan { white-space:pre }
		.shp0 { fill: #ffc500 } 
		.shp1 { fill: #ffffff } 
	</style>
	<path id="Layer" class="shp0" d="M110 249.1C49.17 249.1 0 199.8 0 138.8C0 77.8 49.17 28.5 110 28.5C170.83 28.5 220 77.8 220 138.8C220 199.8 170.83 249.1 110 249.1Z" />
	<path id="Layer" class="shp1" d="M80.8 82.9L163.7 130.9C169.5 134.3 169.5 142.7 163.7 146L80.8 194C75 197.4 67.7 193.2 67.7 186.4L67.7 90.4C67.7 83.7 75 79.4 80.8 82.9Z" />
	<path id="Layer" class="shp0" d="M37.2 1C37.2 1 70.5 -0.8 77.7 34.6C77.7 34.7 40.2 32.1 37.2 1Z" />
	<path id="Layer" class="shp0" d="M73.3 31.1L82.6 31.2C82.6 31.2 78.1 16 90.4 3.9L86.6 0.8C86.6 0.7 72 9 73.3 31.1Z" />
</svg>