<?xml version="1.0" encoding="utf-8"?>
<!-- Generator: Adobe Illustrator 18.0.0, SVG Export Plug-In . SVG Version: 6.00 Build 0)  -->
<!DOCTYPE svg PUBLIC "-//W3C//DTD SVG 1.1//EN" "http://www.w3.org/Graphics/SVG/1.1/DTD/svg11.dtd">
<svg version="1.1" id="Layer_1" xmlns="http://www.w3.org/2000/svg" xmlns:xlink="http://www.w3.org/1999/xlink" x="0px" y="0px"
	 width="660px" height="248px" viewBox="0 0 660 248" enable-background="new 0 0 660 248" xml:space="preserve">
<ellipse fill="#FFC500" cx="550" cy="137.8" rx="110" ry="110.3"/>
<path fill="#FFFFFF" d="M520.8,81.9l82.9,48c5.8,3.4,5.8,11.8,0,15.1l-82.9,48c-5.8,3.4-13.1-0.8-13.1-7.6v-96
	C507.7,82.7,515,78.4,520.8,81.9z"/>
<path fill="#FFC500" d="M477.2,0c0,0,33.3-1.8,40.5,33.6C517.7,33.7,480.2,31.1,477.2,0z"/>
<path fill="#FFC500" d="M515.3,37.1l9.3,0.1c0,0-4.5-15.2,7.8-27.3l-3.8-3.1C528.6,6.7,514,15,515.3,37.1z"/>
<ellipse fill="#F9B800" cx="330" cy="137.8" rx="110" ry="110.3"/>
<path fill="#FFFFFF" d="M300.8,81.9l82.9,48c5.8,3.4,5.8,11.8,0,15.1l-82.9,48c-5.8,3.4-13.1-0.8-13.1-7.6v-96
	C287.7,82.7,295,78.4,300.8,81.9z"/>
<path fill="#F9B800" d="M257.2,0c0,0,33.3-1.8,40.5,33.6C297.7,33.7,260.2,31.1,257.2,0z"/>
<path fill="#F9B800" d="M295.3,37.1l9.3,0.1c0,0-4.5-15.2,7.8-27.3l-3.8-3.1C308.6,6.7,294,15,295.3,37.1z"/>
<ellipse fill="#F9B800" cx="110" cy="137.8" rx="110" ry="110.3"/>
<path fill="#FFC500" d="M80.8,81.9l82.9,48c5.8,3.4,5.8,11.8,0,15.1l-82.9,48c-5.8,3.4-13.1-0.8-13.1-7.6v-96
	C67.7,82.7,75,78.4,80.8,81.9z"/>
<path fill="#F9B800" d="M37.2,0c0,0,33.3-1.8,40.5,33.6C77.7,33.7,40.2,31.1,37.2,0z"/>
<path fill="#F9B800" d="M75.3,37.1l9.3,0.1c0,0-4.5-15.2,7.8-27.3l-3.8-3.1C88.6,6.7,74,15,75.3,37.1z"/>
</svg>
