<svg version="1.2" baseProfile="tiny-ps" xmlns="http://www.w3.org/2000/svg" viewBox="0 0 60 60" width="60" height="60">
	<title>Canvas</title>
	<defs>
		<clipPath clipPathUnits="userSpaceOnUse" id="cp1">
			<path d="M-10 -10L230 -10L230 70L-10 70L-10 -10Z" />
		</clipPath>
	</defs>
	<style>
		tspan { white-space:pre }
		.shp0 { fill: #f7dc4d } 
		.shp1 { fill: #df871e } 
	</style>
	<g id="Canvas">
		<g id="Clip-Path: Frame 17" clip-path="url(#cp1)">
			<g id="Frame 17">
				<g id="Group">
					<g id="Group">
						<g id="Vector">
							<path id="path0_fill" fill-rule="evenodd" class="shp0" d="M60 30C60 46.57 46.57 60 30 60C13.43 60 0 46.57 0 30C0 13.43 13.43 0 30 0C46.57 0 60 13.43 60 30ZM25.53 38.4C25.53 36.22 23.78 34.47 21.6 34.47C19.43 34.47 17.68 36.22 17.68 38.4C17.68 40.57 19.43 42.32 21.6 42.32C23.78 42.32 25.53 40.57 25.53 38.4ZM25.53 21.6C25.53 19.43 23.78 17.68 21.6 17.68C19.43 17.68 17.68 19.43 17.68 21.6C17.68 23.78 19.43 25.53 21.6 25.53C23.78 25.53 25.53 23.78 25.53 21.6ZM42.32 38.4C42.32 36.22 40.57 34.47 38.4 34.47C36.22 34.47 34.47 36.22 34.47 38.4C34.47 40.57 36.22 42.32 38.4 42.32C40.57 42.32 42.32 40.57 42.32 38.4ZM42.32 21.6C42.32 19.43 40.57 17.68 38.4 17.68C36.22 17.68 34.47 19.43 34.47 21.6C34.47 23.78 36.22 25.53 38.4 25.53C40.57 25.53 42.32 23.78 42.32 21.6Z" />
						</g>
						<g id="Group">
							<g id="Vector">
								<path id="path1_fill" fill-rule="evenodd" class="shp0" d="M60 30C60 46.57 46.57 60 30 60L30 0C46.57 0 60 13.43 60 30ZM42.32 38.4C42.32 36.22 40.57 34.47 38.4 34.47C36.22 34.47 34.47 36.22 34.47 38.4C34.47 40.57 36.22 42.32 38.4 42.32C40.57 42.32 42.32 40.57 42.32 38.4ZM42.32 21.6C42.32 19.43 40.57 17.68 38.4 17.68C36.22 17.68 34.47 19.43 34.47 21.6C34.47 23.78 36.22 25.53 38.4 25.53C40.57 25.53 42.32 23.78 42.32 21.6Z" />
							</g>
							<g id="Vector">
								<path id="path2_fill" fill-rule="evenodd" class="shp1" d="M52.64 30.04C52.64 42.54 42.5 52.68 30 52.68C17.5 52.68 7.36 42.54 7.36 30.04C7.36 17.54 17.5 7.4 30 7.4C42.5 7.4 52.64 17.54 52.64 30.04ZM25.53 38.44C25.53 36.26 23.78 34.51 21.6 34.51C19.43 34.51 17.68 36.26 17.68 38.44C17.68 40.61 19.43 42.36 21.6 42.36C23.78 42.36 25.53 40.61 25.53 38.44ZM25.53 21.64C25.53 19.47 23.78 17.72 21.6 17.72C19.43 17.72 17.68 19.47 17.68 21.64C17.68 23.82 19.43 25.57 21.6 25.57C23.78 25.57 25.53 23.82 25.53 21.64ZM42.32 38.44C42.32 36.26 40.57 34.51 38.4 34.51C36.22 34.51 34.47 36.26 34.47 38.44C34.47 40.61 36.22 42.36 38.4 42.36C40.57 42.36 42.32 40.61 42.32 38.44ZM42.32 21.64C42.32 19.47 40.57 17.72 38.4 17.72C36.22 17.72 34.47 19.47 34.47 21.64C34.47 23.82 36.22 25.57 38.4 25.57C40.57 25.57 42.32 23.82 42.32 21.64Z" />
							</g>
						</g>
					</g>
				</g>
			</g>
		</g>
	</g>
</svg>